<svg width="14" height="13" viewBox="0 0 14 13" fill="none" xmlns="http://www.w3.org/2000/svg">
<path fill-rule="evenodd" clip-rule="evenodd" d="M11.2945 4.58947L7.31701 8.56694C7.07293 8.81102 6.6772 8.81102 6.43312 8.56694L2.45565 4.58947C2.21157 4.34539 2.21157 3.94966 2.45565 3.70558C2.69972 3.4615 3.09545 3.4615 3.33953 3.70558L6.25006 6.61612V0.625C6.25006 0.279822 6.52989 0 6.87506 0C7.22024 0 7.50006 0.279822 7.50006 0.625V6.61612L10.4106 3.70558C10.6547 3.4615 11.0504 3.4615 11.2945 3.70558C11.5386 3.94966 11.5386 4.34539 11.2945 4.58947Z" fill="#A0A0A0"/>
<path fill-rule="evenodd" clip-rule="evenodd" d="M0.625 7.5C0.970178 7.5 1.25 7.77982 1.25 8.125V10.625C1.25 10.9702 1.52982 11.25 1.875 11.25H11.875C12.2202 11.25 12.5 10.9702 12.5 10.625V8.125C12.5 7.77982 12.7798 7.5 13.125 7.5C13.4702 7.5 13.75 7.77982 13.75 8.125V10.625C13.75 11.6605 12.9105 12.5 11.875 12.5H1.875C0.839466 12.5 0 11.6605 0 10.625V8.125C0 7.77982 0.279822 7.5 0.625 7.5Z" fill="#A0A0A0"/>
</svg>
